<svg width="20" height="20" viewBox="0 0 20 20" fill="none" xmlns="http://www.w3.org/2000/svg">
<path d="M3.1903 4.80247C4.44905 4.80247 5.46947 3.78206 5.46947 2.52331C5.46947 1.26456 4.44905 0.244141 3.1903 0.244141C1.93155 0.244141 0.911133 1.26456 0.911133 2.52331C0.911133 3.78206 1.93155 4.80247 3.1903 4.80247Z" fill="#F3F3F3"/>
<path d="M7.62185 6.5297V19.1745H11.5479V12.9214C11.5479 11.2714 11.8583 9.67345 13.9041 9.67345C15.9219 9.67345 15.9469 11.5599 15.9469 13.0255V19.1755H19.875V12.2412C19.875 8.83491 19.1416 6.2172 15.1604 6.2172C13.2489 6.2172 11.9677 7.26616 11.4437 8.25887H11.3906V6.5297H7.62185ZM1.22394 6.5297H5.15623V19.1745H1.22394V6.5297Z" fill="#F3F3F3"/>
</svg>
