<?xml version="1.0" standalone="no"?>
<!DOCTYPE svg PUBLIC "-//W3C//DTD SVG 20010904//EN"
 "http://www.w3.org/TR/2001/REC-SVG-20010904/DTD/svg10.dtd">
<svg version="1.0" xmlns="http://www.w3.org/2000/svg"
 width="896.000000pt" height="896.000000pt" viewBox="0 0 896.000000 896.000000"
 preserveAspectRatio="xMidYMid meet">
<metadata>
Created by potrace 1.14, written by Peter Selinger 2001-2017
</metadata>
<g transform="translate(0.000000,896.000000) scale(0.100000,-0.100000)"
fill="#000000" stroke="none">
<path d="M1803 8687 c-2 -4 -7 -20 -9 -35 -3 -15 -10 -47 -15 -72 -6 -25 -13
-56 -15 -70 -3 -14 -14 -65 -25 -115 -11 -49 -22 -99 -23 -110 -4 -22 -31
-148 -46 -210 -5 -22 -9 -41 -10 -42 0 -2 0 -4 -1 -5 0 -2 -2 -12 -4 -23 -4
-29 -13 -72 -19 -93 -3 -9 -7 -28 -10 -42 -2 -14 -12 -61 -21 -105 -9 -44 -18
-89 -20 -100 -2 -11 -8 -38 -14 -60 -5 -22 -10 -41 -11 -42 0 -2 0 -4 -1 -5 0
-2 -2 -14 -5 -28 -2 -14 -9 -50 -16 -80 -6 -30 -12 -64 -14 -75 -2 -11 -20
-92 -40 -180 -19 -88 -37 -171 -40 -185 -2 -14 -7 -36 -10 -50 -3 -14 -8 -34
-10 -45 -2 -11 -6 -31 -9 -45 -4 -14 -8 -34 -10 -45 -2 -11 -6 -31 -9 -45 -7
-32 -15 -69 -20 -95 -3 -11 -9 -39 -14 -62 -5 -24 -8 -43 -5 -43 3 0 0 -7 -7
-15 -7 -8 -10 -15 -7 -15 2 0 -2 -28 -9 -62 -8 -35 -17 -74 -19 -88 -3 -14
-12 -54 -20 -90 -8 -36 -16 -78 -19 -95 -3 -16 -8 -39 -11 -50 -18 -78 -24
-104 -28 -130 -3 -16 -10 -50 -15 -75 -6 -25 -13 -56 -16 -70 -2 -14 -9 -45
-15 -70 -5 -25 -13 -60 -16 -79 -3 -19 -7 -37 -9 -40 -2 -3 -7 -22 -10 -41 -3
-19 -8 -45 -11 -57 -12 -55 -16 -70 -21 -98 -3 -16 -10 -50 -15 -75 -6 -25
-13 -54 -15 -65 -3 -11 -6 -31 -8 -45 -2 -14 -11 -55 -19 -90 -13 -53 -25
-108 -32 -140 -7 -33 -18 -89 -21 -105 -2 -11 -6 -31 -10 -45 -3 -14 -7 -34
-9 -45 -3 -11 -6 -27 -8 -35 -4 -16 -17 -82 -23 -113 -2 -10 -5 -26 -8 -35 -3
-9 -7 -28 -10 -42 -3 -14 -7 -36 -10 -50 -3 -14 -10 -47 -16 -75 -6 -27 -12
-60 -15 -72 -17 -77 -25 -116 -29 -138 -3 -11 -10 -42 -16 -70 -6 -27 -13 -61
-15 -75 -2 -14 -10 -54 -19 -90 -15 -65 -24 -107 -31 -145 -2 -11 -6 -31 -10
-45 -3 -14 -7 -36 -10 -50 -3 -14 -21 -97 -41 -185 -19 -88 -37 -171 -39 -185
-1 -14 -12 -65 -23 -115 -12 -49 -24 -105 -27 -124 -3 -19 -7 -37 -9 -40 -2
-3 -7 -24 -10 -46 -4 -22 -8 -47 -11 -55 -2 -8 -7 -27 -10 -42 -12 -65 -17
-86 -30 -144 -8 -34 -16 -73 -19 -85 -2 -13 -16 -80 -31 -149 -15 -69 -29
-136 -31 -150 -3 -14 -14 -68 -26 -120 -11 -52 -22 -106 -24 -119 -3 -12 -11
-51 -19 -85 -8 -33 -17 -77 -20 -96 -3 -19 -8 -42 -10 -50 -2 -8 -6 -26 -9
-40 -16 -79 -97 -459 -103 -480 -9 -36 -10 -39 -22 -100 -5 -30 -12 -64 -15
-75 -8 -35 -35 -160 -39 -185 -3 -14 -12 -56 -21 -93 -9 -37 -18 -82 -21 -100
-2 -18 -20 -104 -40 -192 -19 -88 -37 -171 -40 -185 -3 -14 -7 -36 -10 -50 -3
-14 -8 -36 -11 -50 -4 -23 -10 -50 -30 -135 -7 -29 -11 -48 -17 -90 -2 -11 -6
-26 -11 -33 -4 -7 -2 -14 6 -17 7 -3 307 -4 667 -3 l655 3 8 30 c8 33 16 71
25 125 3 19 9 40 14 46 5 6 7 13 4 15 -2 3 0 21 5 40 5 19 12 50 16 69 8 47
12 65 14 65 1 0 3 11 5 25 2 14 13 68 24 120 12 52 23 106 26 120 2 14 16 79
30 145 15 66 28 129 30 140 2 11 8 38 13 60 6 22 14 55 17 73 3 18 12 65 21
105 8 39 17 81 20 92 2 11 6 31 9 45 3 14 7 34 9 45 2 11 11 50 20 88 9 37 18
82 21 100 3 17 15 73 26 122 12 50 22 101 24 115 2 14 4 26 5 28 1 1 3 5 4 10
2 8 15 72 23 112 8 40 11 55 13 55 1 0 3 11 5 25 2 14 13 70 25 125 12 55 24
107 25 115 2 8 4 17 5 20 1 3 2 8 2 11 0 3 4 23 9 45 11 45 28 128 35 164 2
14 11 54 19 90 8 36 17 76 19 90 3 14 5 25 6 25 1 0 3 11 6 25 9 57 36 186 41
200 3 8 7 22 8 30 2 13 10 56 31 150 3 14 7 36 10 49 3 12 12 53 20 89 9 37
17 78 20 92 2 14 5 32 7 40 2 8 7 33 11 55 4 22 12 54 16 70 5 17 11 44 14 60
3 17 7 41 11 55 3 14 8 39 10 55 3 17 8 37 10 45 2 8 7 27 10 43 5 27 10 50
20 97 4 14 8 36 11 50 3 14 7 32 9 40 2 8 7 31 11 50 8 45 12 65 14 65 1 0 3
9 5 20 4 27 11 61 40 195 14 63 28 130 31 149 2 19 6 37 9 41 2 4 7 21 10 38
3 18 12 65 21 105 8 39 17 81 20 92 2 11 6 29 8 40 3 11 17 76 31 145 15 69
29 136 32 150 3 14 7 34 8 45 2 11 4 20 5 20 2 0 6 19 14 65 3 19 10 50 15 68
5 18 10 33 9 35 -1 11 17 86 24 101 7 14 7 16 -2 11 -9 -5 -9 -2 -2 11 7 15
34 134 57 252 2 9 4 17 5 17 2 0 5 14 13 60 12 60 20 99 41 193 7 34 11 62 9
62 -3 0 -1 6 5 13 6 6 10 15 10 20 0 7 10 70 18 110 2 10 6 28 10 39 3 11 7
30 9 41 2 12 10 56 20 97 9 41 19 86 21 100 3 14 10 45 15 70 14 61 16 72 23
115 4 20 8 40 10 44 2 3 7 24 11 46 8 47 13 70 15 70 1 0 3 9 5 20 1 11 5 31
8 45 3 14 15 72 27 130 21 101 25 119 34 158 11 42 69 319 71 337 1 11 3 20 4
20 2 0 4 7 6 15 1 8 8 42 15 75 7 33 14 69 16 80 1 11 3 20 4 20 1 0 3 7 5 16
1 10 10 48 18 85 9 38 19 85 22 104 3 19 13 64 21 100 15 65 24 107 29 145 1
11 5 27 8 35 6 16 24 98 31 140 3 14 5 25 6 25 1 0 3 9 5 20 3 21 11 63 21
108 3 15 2 28 -3 28 -38 6 -1316 2 -1320 -4z"/>
<path d="M4717 8690 c-7 -3 -13 -10 -14 -16 -1 -6 -5 -24 -8 -40 -3 -16 -8
-40 -10 -54 -2 -14 -11 -54 -19 -90 -8 -36 -17 -76 -20 -90 -2 -14 -12 -59
-21 -100 -9 -41 -18 -86 -20 -100 -1 -14 -8 -43 -14 -65 -6 -22 -26 -119 -46
-215 -20 -96 -38 -182 -42 -190 -3 -8 -7 -24 -8 -35 -4 -34 -17 -100 -21 -106
-2 -3 -6 -21 -9 -40 -3 -19 -11 -54 -16 -79 -6 -25 -12 -54 -15 -65 -2 -11 -9
-45 -15 -75 -7 -30 -13 -64 -15 -75 -1 -11 -3 -20 -4 -20 -1 0 -3 -7 -5 -15
-10 -48 -14 -67 -30 -140 -3 -14 -7 -36 -10 -50 -3 -14 -14 -65 -24 -115 -37
-165 -80 -373 -86 -407 -3 -18 -8 -41 -11 -50 -8 -27 -15 -61 -19 -88 -2 -14
-4 -25 -5 -25 -1 0 -3 -9 -5 -20 -3 -11 -14 -65 -25 -120 -30 -140 -48 -229
-55 -265 -2 -8 -4 -15 -5 -15 -1 0 -3 -11 -6 -25 -2 -14 -11 -56 -20 -95 -9
-38 -17 -81 -18 -95 -1 -14 -6 -31 -10 -38 -4 -7 -5 -12 -2 -12 2 0 0 -15 -5
-32 -10 -36 -40 -171 -45 -203 -1 -11 -3 -21 -4 -22 -4 -4 -6 -14 -15 -68 -10
-57 -12 -64 -15 -67 -1 -2 -3 -12 -5 -22 -2 -11 -11 -51 -19 -90 -9 -39 -18
-86 -21 -105 -3 -19 -8 -38 -11 -43 -3 -5 -7 -23 -10 -41 -5 -38 -11 -72 -18
-95 -3 -9 -7 -28 -10 -42 -2 -14 -11 -57 -20 -95 -8 -39 -17 -82 -20 -95 -2
-14 -9 -45 -15 -70 -5 -25 -12 -56 -14 -70 -4 -21 -42 -199 -64 -300 -3 -14
-7 -34 -8 -45 -2 -11 -4 -20 -5 -20 -2 0 -6 -18 -15 -65 -5 -31 -14 -72 -31
-145 -3 -11 -7 -31 -9 -45 -2 -14 -11 -56 -19 -95 -9 -38 -18 -81 -20 -95 -3
-14 -5 -25 -6 -25 -2 0 -5 -13 -13 -55 -3 -14 -8 -36 -11 -50 -4 -14 -9 -38
-11 -55 -2 -16 -4 -30 -5 -30 -1 0 -3 -7 -5 -15 -9 -41 -16 -73 -21 -97 -3
-16 -18 -89 -34 -163 -16 -74 -31 -146 -34 -160 -2 -14 -14 -68 -26 -120 -12
-52 -23 -106 -25 -120 -2 -14 -4 -25 -5 -25 -2 0 -6 -19 -13 -60 -3 -16 -10
-50 -15 -75 -6 -25 -13 -56 -16 -70 -8 -42 -15 -73 -26 -120 -5 -25 -12 -57
-15 -72 -3 -16 -8 -40 -11 -55 -4 -16 -8 -37 -9 -48 -2 -11 -4 -20 -5 -20 -1
0 -3 -9 -5 -20 -2 -11 -23 -106 -45 -210 -23 -105 -44 -203 -46 -220 -3 -16
-10 -48 -15 -70 -15 -62 -20 -88 -24 -115 -2 -14 -4 -25 -5 -25 -1 0 -3 -7 -5
-15 -1 -8 -13 -62 -25 -120 -12 -58 -24 -116 -26 -130 -3 -14 -11 -52 -19 -85
-8 -33 -21 -94 -29 -135 -9 -42 -22 -105 -30 -140 -8 -36 -17 -76 -20 -90 -2
-14 -9 -45 -15 -70 -5 -25 -13 -61 -16 -80 -3 -19 -11 -55 -17 -80 -6 -25 -12
-54 -13 -65 -2 -11 -8 -40 -14 -65 -7 -25 -13 -54 -15 -65 -4 -17 -14 -69 -32
-150 -2 -11 -6 -30 -8 -43 l-5 -22 664 0 665 0 5 22 c11 50 34 154 39 178 10
53 35 168 50 237 9 40 18 86 21 103 3 16 12 58 20 93 8 35 17 74 19 88 2 13 5
24 6 24 1 0 3 11 5 25 2 14 10 57 19 95 9 39 19 84 22 100 3 17 12 59 20 95 8
36 21 97 29 135 8 39 17 81 20 95 3 14 8 41 12 60 4 19 8 37 8 40 1 3 4 19 8
35 4 17 9 39 11 50 2 12 23 108 46 215 23 107 44 205 46 218 3 13 16 76 30
140 14 64 28 128 30 142 3 14 10 45 15 70 6 25 13 54 15 65 2 11 6 30 9 42 3
13 7 31 9 42 2 10 7 35 10 56 4 20 8 40 10 44 2 3 7 22 10 41 3 19 17 85 31
145 14 61 26 117 26 125 1 8 6 33 11 55 6 22 12 51 15 65 8 40 11 55 13 55 1
0 3 9 5 20 9 60 18 106 30 155 7 30 16 69 18 85 3 17 15 73 27 125 11 52 23
110 26 129 2 19 7 37 9 42 3 4 8 27 11 51 4 24 10 51 15 61 6 9 8 17 5 17 -2
0 0 15 4 32 5 18 12 47 14 63 7 34 7 36 36 170 12 55 24 111 27 125 3 14 6 30
7 35 3 12 17 82 22 108 2 10 5 26 8 35 3 9 7 28 10 42 6 30 13 64 22 105 4 17
8 37 9 45 1 8 5 26 8 40 4 14 9 37 12 53 3 15 8 39 11 55 4 15 8 36 9 47 2 11
4 20 5 20 3 0 28 117 44 208 2 12 16 74 30 137 15 63 29 129 32 145 2 17 7 38
10 48 3 11 7 29 9 40 2 12 6 33 9 47 3 14 8 36 11 50 2 14 10 50 16 80 6 30
13 62 14 70 2 8 4 15 5 15 1 0 3 9 5 20 2 11 6 34 10 50 28 133 65 305 69 328
2 15 7 35 10 45 6 18 14 58 22 107 3 17 10 48 16 70 5 22 12 51 14 65 3 14 18
86 34 162 16 75 32 150 35 167 3 17 12 61 21 98 19 83 21 92 35 171 6 34 15
65 20 68 5 3 7 9 4 14 -3 5 4 48 15 97 12 48 23 97 25 108 2 11 11 56 20 100
9 44 19 89 21 100 2 11 6 31 9 45 4 14 8 36 11 50 3 14 21 96 39 183 19 87 37
172 40 189 3 17 8 34 10 37 2 4 6 27 10 51 3 25 10 59 15 75 5 17 12 44 15 60
13 74 16 91 22 110 4 11 7 27 8 35 1 8 8 42 15 75 7 33 14 67 15 75 2 8 4 15
5 15 1 0 3 9 5 20 4 31 15 89 20 105 2 8 6 26 9 40 l4 25 -654 0 c-360 0 -660
-2 -667 -5z"/>
<path d="M7615 8690 c-4 -6 -18 -78 -20 -100 0 -9 -4 -20 -7 -26 -4 -5 -9 -28
-12 -50 -3 -21 -10 -54 -15 -72 -5 -18 -10 -36 -10 -40 -1 -4 -4 -20 -7 -37
-3 -16 -7 -39 -9 -50 -2 -11 -4 -20 -5 -20 -1 0 -3 -9 -5 -20 -2 -11 -7 -36
-11 -55 -5 -19 -9 -39 -9 -45 -1 -5 -7 -35 -13 -65 -20 -90 -23 -104 -28 -130
-3 -14 -7 -32 -9 -40 -2 -8 -7 -30 -10 -47 -3 -18 -12 -63 -21 -100 -9 -38
-17 -79 -19 -93 -2 -14 -4 -25 -5 -25 -2 0 -6 -16 -14 -60 -7 -38 -12 -59 -25
-115 -10 -44 -14 -64 -26 -125 -3 -16 -11 -50 -16 -75 -13 -56 -18 -77 -25
-115 -9 -44 -12 -60 -14 -60 -1 0 -3 -9 -4 -20 -3 -20 -24 -121 -41 -197 -3
-13 -7 -34 -10 -48 -2 -14 -14 -68 -25 -120 -12 -52 -23 -105 -26 -117 -2 -13
-6 -33 -9 -45 -3 -13 -16 -75 -30 -138 -13 -63 -26 -126 -29 -140 -2 -14 -27
-131 -55 -260 -28 -129 -52 -246 -55 -260 -12 -64 -48 -224 -51 -230 -2 -3 -6
-25 -10 -50 -4 -25 -8 -48 -11 -51 -2 -4 -6 -24 -10 -44 -3 -21 -8 -47 -10
-59 -3 -11 -7 -32 -10 -46 -3 -14 -7 -33 -10 -42 -3 -10 -7 -29 -10 -43 -5
-30 -11 -61 -18 -95 -10 -42 -19 -95 -19 -100 1 -3 -3 -12 -7 -20 -5 -9 -11
-34 -14 -56 -8 -53 -11 -65 -42 -199 -3 -11 -7 -29 -8 -40 -6 -32 -15 -75 -31
-150 -17 -77 -23 -103 -29 -137 -2 -13 -9 -43 -15 -68 -7 -25 -14 -58 -16 -75
-5 -29 -9 -50 -20 -97 -3 -13 -8 -34 -10 -48 -2 -14 -14 -65 -25 -115 -11 -49
-23 -106 -26 -125 -3 -19 -8 -38 -10 -41 -2 -4 -6 -24 -10 -44 -3 -21 -8 -47
-10 -59 -3 -11 -7 -32 -10 -46 -3 -14 -9 -41 -14 -60 -5 -19 -12 -51 -15 -70
-3 -19 -11 -55 -16 -80 -6 -25 -13 -54 -15 -65 -2 -11 -6 -29 -8 -40 -47 -217
-67 -314 -70 -330 -3 -11 -9 -39 -14 -62 -5 -24 -8 -43 -5 -43 3 0 0 -7 -7
-15 -7 -8 -10 -15 -7 -15 3 0 -1 -26 -8 -58 -14 -58 -43 -197 -51 -242 -3 -14
-11 -53 -19 -86 -8 -34 -16 -73 -19 -85 -2 -13 -16 -80 -31 -149 -15 -69 -29
-135 -31 -148 -3 -13 -15 -74 -29 -135 -13 -62 -26 -123 -29 -137 -3 -14 -8
-36 -11 -50 -3 -14 -11 -50 -16 -80 -12 -60 -13 -63 -22 -100 -8 -30 -95 -440
-102 -479 -3 -14 -7 -37 -11 -51 -3 -14 -7 -34 -9 -45 -2 -11 -12 -58 -23
-105 -11 -47 -23 -103 -26 -125 -4 -22 -15 -76 -26 -120 -10 -44 -22 -95 -25
-113 -3 -18 -21 -105 -40 -193 -19 -88 -35 -164 -35 -170 0 -5 255 -9 663 -9
l663 0 49 223 c26 122 49 235 51 250 2 16 6 32 9 37 4 7 14 55 21 105 1 11 3
20 4 20 2 0 7 21 55 249 2 11 7 32 10 46 3 14 8 34 9 45 2 11 8 40 14 65 6 24
9 46 7 49 -3 2 -1 9 4 15 5 6 12 29 14 51 3 22 12 69 21 105 16 69 25 113 31
145 2 11 12 58 23 105 11 47 23 99 26 115 3 17 13 64 22 105 8 41 17 84 19 95
2 11 10 50 19 88 9 37 18 79 21 95 5 26 9 47 19 100 3 13 7 31 10 40 3 9 7 28
10 42 2 14 9 45 15 70 5 24 8 46 6 49 -3 2 0 10 6 18 6 7 9 13 6 13 -3 0 -1
15 4 33 5 17 12 46 14 62 3 17 10 50 15 75 29 128 51 227 54 245 2 11 6 34 10
50 3 17 9 41 12 55 3 14 6 30 8 35 1 6 7 33 11 60 10 57 12 64 15 68 1 1 3 11
5 21 2 11 11 51 19 90 9 39 17 82 20 96 2 14 14 68 26 120 12 52 23 107 25
121 2 14 10 53 18 85 8 32 18 75 21 94 3 19 8 44 10 55 3 11 14 63 26 115 11
52 22 104 25 115 18 89 27 134 31 155 3 14 14 66 25 115 12 50 23 101 25 115
4 21 9 44 20 95 15 68 25 117 29 140 2 11 11 52 19 90 9 39 18 82 21 97 3 14
14 66 26 113 11 48 18 89 15 92 -3 3 -1 14 5 25 10 19 14 32 25 93 6 37 33
163 86 410 22 105 42 199 43 210 1 11 5 27 8 35 5 13 14 53 42 185 2 11 6 34
9 52 3 17 10 50 16 73 6 23 13 53 15 68 3 15 6 34 8 42 13 56 29 134 32 157 2
16 4 28 5 28 1 0 3 7 5 15 1 8 14 69 28 135 15 66 28 131 31 145 2 14 10 48
16 75 18 79 20 88 25 115 2 14 10 54 19 90 14 62 20 88 31 148 3 15 8 33 11
41 2 8 7 30 10 50 3 20 12 61 19 91 7 30 16 69 18 85 3 17 12 60 21 98 9 37
18 82 21 100 3 17 12 60 20 93 15 67 22 100 31 154 3 19 8 38 10 41 2 3 6 21
9 40 3 19 11 54 16 79 6 25 13 56 15 70 3 14 7 33 10 42 3 9 7 27 9 40 4 20
14 68 29 143 3 11 11 52 20 90 8 39 17 83 20 98 2 15 7 31 11 37 3 5 3 11 -2
11 -27 4 -1325 3 -1328 -1z"/>
</g>
</svg>
